<svg xmlns="http://www.w3.org/2000/svg" viewBox="0 0 900 1400"><defs><linearGradient id="s" x2="0" y2="1"><stop stop-color="#05070d"/><stop offset=".55" stop-color="#43121d"/><stop offset="1" stop-color="#d2475c"/></linearGradient><filter id="b"><feGaussianBlur stdDeviation="18"/></filter></defs><rect width="900" height="1400" fill="url(#s)"/><circle cx="690" cy="320" r="160" fill="#f45a72" opacity=".28" filter="url(#b)"/><path d="M0 920L100 850 180 910 260 760 340 890 430 720 510 870 600 650 680 850 760 760 900 900V1400H0Z" fill="#08090c"/><g fill="#e35a6e" opacity=".7"><rect x="40" y="1020" width="6" height="6" rx="2"/><rect x="85" y="1065" width="6" height="6" rx="2"/><rect x="130" y="1020" width="6" height="6" rx="2"/><rect x="175" y="1065" width="6" height="6" rx="2"/><rect x="220" y="1020" width="6" height="6" rx="2"/><rect x="265" y="1065" width="6" height="6" rx="2"/><rect x="310" y="1020" width="6" height="6" rx="2"/><rect x="355" y="1065" width="6" height="6" rx="2"/><rect x="400" y="1020" width="6" height="6" rx="2"/><rect x="445" y="1065" width="6" height="6" rx="2"/><rect x="490" y="1020" width="6" height="6" rx="2"/><rect x="535" y="1065" width="6" height="6" rx="2"/><rect x="580" y="1020" width="6" height="6" rx="2"/><rect x="625" y="1065" width="6" height="6" rx="2"/><rect x="670" y="1020" width="6" height="6" rx="2"/><rect x="715" y="1065" width="6" height="6" rx="2"/><rect x="760" y="1020" width="6" height="6" rx="2"/><rect x="805" y="1065" width="6" height="6" rx="2"/><rect x="850" y="1020" width="6" height="6" rx="2"/></g></svg>